<?xml version="1.0" standalone="no"?>
<!DOCTYPE svg PUBLIC "-//W3C//DTD SVG 20010904//EN"
 "http://www.w3.org/TR/2001/REC-SVG-20010904/DTD/svg10.dtd">
<svg version="1.0" xmlns="http://www.w3.org/2000/svg"
 width="512.000000pt" height="512.000000pt" viewBox="0 0 512.000000 512.000000"
 preserveAspectRatio="xMidYMid meet">
<metadata>
Created by potrace 1.11, written by Peter Selinger 2001-2013
</metadata>
<g transform="translate(0.000000,512.000000) scale(0.100000,-0.100000)"
fill="#000000" stroke="none">
<path d="M2321 4790 c-25 -5 -49 -14 -55 -20 -5 -5 -16 -10 -23 -10 -32 0
-166 -121 -178 -161 -4 -10 -10 -19 -15 -19 -5 0 -12 -16 -16 -35 -3 -19 -10
-38 -15 -41 -5 -3 -9 -14 -9 -25 0 -18 -8 -19 -158 -19 -134 0 -169 -3 -228
-22 -61 -19 -109 -41 -124 -58 -3 -3 -22 -19 -42 -34 -41 -31 -94 -107 -122
-176 -11 -25 -29 -67 -42 -95 -12 -27 -36 -80 -53 -118 -17 -37 -31 -70 -31
-73 0 -4 -13 -34 -29 -68 -17 -33 -42 -89 -56 -124 -14 -35 -44 -102 -65 -148
-22 -46 -40 -87 -40 -89 0 -3 -11 -28 -25 -57 -14 -28 -25 -55 -25 -60 0 -4
53 -8 118 -8 l119 0 28 68 c25 59 55 127 100 227 59 130 75 166 75 169 0 3 14
35 31 73 140 309 140 308 206 343 39 20 47 20 929 18 773 -3 892 -5 908 -18
54 -43 84 -84 111 -146 15 -38 44 -103 62 -144 19 -41 38 -84 43 -95 20 -46
63 -143 81 -181 10 -22 19 -43 19 -47 0 -3 17 -43 39 -89 21 -46 48 -104 59
-130 l21 -48 121 0 c67 0 120 3 118 8 -2 4 -12 25 -22 47 -10 22 -28 63 -41
90 -64 139 -85 187 -85 192 0 4 -13 34 -29 67 -16 34 -37 79 -46 101 -45 103
-59 134 -86 191 -16 34 -29 65 -29 69 0 4 -19 46 -42 93 -46 93 -126 185 -188
216 -90 46 -155 56 -367 56 -197 0 -203 1 -203 20 0 11 -4 28 -9 38 -5 9 -19
36 -30 60 -22 44 -24 48 -64 92 -30 34 -102 82 -157 105 -37 15 -77 19 -220
21 -96 2 -195 -1 -219 -6z"/>
<path d="M357 3203 c-5 -8 6 -74 38 -243 8 -41 21 -113 30 -160 26 -139 43
-230 60 -315 9 -44 20 -111 26 -150 5 -38 14 -78 19 -87 6 -10 10 -38 10 -62
0 -25 5 -57 11 -73 11 -26 23 -84 53 -263 7 -41 15 -82 18 -90 4 -8 11 -44 17
-80 6 -36 17 -101 26 -145 8 -44 22 -116 29 -160 8 -44 15 -80 16 -80 1 0 8
-34 15 -75 20 -111 42 -228 55 -289 12 -59 81 -199 120 -245 40 -46 105 -110
129 -126 13 -8 32 -23 43 -32 12 -10 27 -18 35 -18 7 0 13 -4 13 -10 0 -5 6
-10 13 -10 6 0 24 -6 39 -14 15 -8 42 -17 60 -21 18 -4 39 -12 47 -19 10 -8
348 -11 1270 -11 1203 0 1259 1 1316 19 124 39 213 93 305 185 49 49 110 133
110 150 0 6 5 11 10 11 6 0 10 6 10 13 0 6 7 25 15 40 8 15 17 45 20 65 4 20
10 46 15 57 5 11 13 50 19 88 6 37 16 97 22 135 6 37 13 74 17 82 3 8 12 49
19 90 7 41 18 109 25 150 7 41 16 80 19 85 4 6 10 39 14 75 4 36 11 70 15 75
4 6 11 44 15 85 4 41 11 81 16 90 4 8 13 47 19 85 17 104 38 220 40 220 1 0 8
36 16 80 7 44 19 114 26 155 7 41 16 80 19 85 4 6 10 39 13 75 4 36 11 74 16
85 5 11 13 52 19 90 6 39 18 106 27 150 8 44 21 112 27 150 7 39 16 76 20 83
5 6 5 16 2 22 -7 12 -4411 14 -4418 3z m1033 -583 l0 -300 -289 0 c-331 0
-297 -12 -317 110 -7 41 -20 111 -29 155 -14 72 -27 137 -53 277 -5 27 -7 50
-4 53 3 3 160 5 349 5 l343 0 0 -300z m1008 -2 l2 -298 -360 0 -360 0 0 300 0
300 358 -2 357 -3 3 -297z m1042 2 l0 -300 -377 2 -378 3 -3 285 c-1 157 0
290 3 297 3 10 87 13 380 13 l375 0 0 -300z m989 288 c0 -7 -4 -33 -9 -58 -50
-248 -68 -348 -81 -435 -6 -38 -16 -76 -21 -82 -8 -10 -80 -13 -299 -13 l-289
0 0 300 0 300 350 0 c274 0 350 -3 349 -12z m-3039 -1138 l0 -270 -213 0 -213
0 -13 63 c-8 34 -16 80 -18 102 -3 22 -9 45 -13 50 -4 6 -11 39 -15 75 -4 36
-11 72 -16 81 -4 8 -11 50 -15 92 l-7 77 262 0 261 0 0 -270z m1008 -2 l2
-268 -360 0 -360 0 0 270 0 270 358 -2 357 -3 3 -267z m1042 2 l0 -270 -377 2
-378 3 -3 245 c-1 135 0 255 3 268 l5 22 375 0 375 0 0 -270z m813 263 c5 -9
-3 -64 -26 -188 -9 -44 -22 -116 -31 -160 -8 -44 -20 -104 -26 -132 l-12 -53
-214 0 -214 0 0 270 0 270 259 0 c143 0 262 -3 264 -7z m-2863 -1077 l0 -254
-37 14 c-21 7 -46 13 -55 14 -10 0 -18 4 -18 9 0 5 -11 12 -25 15 -14 4 -25
11 -25 16 0 6 -6 10 -14 10 -23 0 -103 96 -132 158 -15 31 -33 91 -41 132 -7
41 -16 90 -20 108 l-6 32 187 0 186 0 0 -254z m1010 -1 l0 -255 -360 0 -360 0
0 255 0 255 360 0 360 0 0 -255z m1040 0 l0 -255 -377 2 -378 3 -3 253 -2 252
380 0 380 0 0 -255z m657 213 c-33 -225 -83 -321 -212 -403 -45 -28 -115 -55
-144 -55 -8 0 -11 70 -11 250 l0 250 186 0 187 0 -6 -42z"/>
</g>
</svg>
